<?xml version="1.0" encoding="UTF-8" standalone="no"?>
<!-- Created with Inkscape (http://www.inkscape.org/) -->

<svg
   width="399.99991"
   height="400.00018"
   viewBox="0 0 105.8333 105.83338"
   version="1.1"
   id="svg5"
   sodipodi:docname="oblivion_android.svg"
   inkscape:version="1.2.2 (732a01da63, 2022-12-09)"
   inkscape:export-filename="oblivion_desktop_400x400.png"
   inkscape:export-xdpi="96"
   inkscape:export-ydpi="96"
   xmlns:inkscape="http://www.inkscape.org/namespaces/inkscape"
   xmlns:sodipodi="http://sodipodi.sourceforge.net/DTD/sodipodi-0.dtd"
   xmlns:xlink="http://www.w3.org/1999/xlink"
   xmlns="http://www.w3.org/2000/svg"
   xmlns:svg="http://www.w3.org/2000/svg">
  <sodipodi:namedview
     id="namedview7"
     pagecolor="#ffffff"
     bordercolor="#000000"
     borderopacity="0.25"
     inkscape:showpageshadow="2"
     inkscape:pageopacity="0"
     inkscape:pagecheckerboard="0"
     inkscape:deskcolor="#d1d1d1"
     inkscape:document-units="mm"
     showgrid="false"
     inkscape:zoom="1.0444209"
     inkscape:cx="195.80228"
     inkscape:cy="246.06937"
     inkscape:window-width="1920"
     inkscape:window-height="1009"
     inkscape:window-x="-8"
     inkscape:window-y="-8"
     inkscape:window-maximized="1"
     inkscape:current-layer="g886" />
  <defs
     id="defs2">
    <linearGradient
       inkscape:collect="always"
       id="linearGradient2587">
      <stop
         style="stop-color:#bdc9e4;stop-opacity:1;"
         offset="0"
         id="stop2583" />
      <stop
         style="stop-color:#ffffff;stop-opacity:0;"
         offset="1"
         id="stop2585" />
    </linearGradient>
    <inkscape:path-effect
       effect="fillet_chamfer"
       id="path-effect1626"
       is_visible="true"
       lpeversion="1"
       nodesatellites_param="F,0,0,1,0,66.145833,0,1 @ F,0,0,1,0,66.145833,0,1 @ F,0,0,1,0,66.145833,0,1 @ F,0,0,1,0,66.145833,0,1"
       unit="px"
       method="auto"
       mode="F"
       radius="250"
       chamfer_steps="1"
       flexible="false"
       use_knot_distance="true"
       apply_no_radius="true"
       apply_with_radius="true"
       only_selected="false"
       hide_knots="false" />
    <radialGradient
       inkscape:collect="always"
       xlink:href="#linearGradient2587"
       id="radialGradient2589"
       cx="-414.34381"
       cy="-127.28209"
       fx="-414.34381"
       fy="-127.28209"
       r="140.6198"
       gradientUnits="userSpaceOnUse" />
    <filter
       inkscape:collect="always"
       style="color-interpolation-filters:sRGB"
       id="filter3317"
       x="-0.076158284"
       y="-0.076158284"
       width="1.1523166"
       height="1.1523166">
      <feGaussianBlur
         inkscape:collect="always"
         stdDeviation="8.924468"
         id="feGaussianBlur3319" />
    </filter>
  </defs>
  <g
     inkscape:label="Layer 1"
     inkscape:groupmode="layer"
     id="layer1"
     transform="translate(-44.817157,-87.915593)">
    <g
       id="g12318"
       transform="matrix(0.99999422,0,0,0.99998785,2.3939936e-4,0.00108892)">
      <g
         id="g12286">
        <g
           id="g12255">
          <g
             id="g12384"
             transform="matrix(0.79999981,0,0,0.79999981,8.8945632,17.594503)">
            <g
               id="g12225"
               transform="matrix(1.0889994,0,0,1.1300466,-4.3952189,-13.692921)">
              <g
                 id="g11364"
                 transform="translate(3.9597108e-7,-0.75532657)">
                <g
                   id="g368"
                   transform="translate(-120.96653,-13.730996)">
                  <g
                     id="g5345"
                     transform="translate(-0.98711307,-0.95125719)">
                    <g
                       id="g5350">
                      <g
                         id="g5323"
                         transform="matrix(0.93344377,0,0,0.89953786,124.31161,25.301704)" />
                      <g
                         id="g886"
                         transform="matrix(1.2751572,0,0,1.2751572,-45.609809,-28.719055)">
                        <g
                           id="g1266"
                           transform="matrix(0.78296543,0,0,0.78125037,36.362829,22.959021)">
                          <ellipse
                             style="fill:#000001;stroke:#666666;stroke-width:7.08974;stroke-linecap:round;stroke-linejoin:round;stroke-miterlimit:0"
                             id="path1262"
                             cx="227.56822"
                             cy="163.93765"
                             rx="57.292587"
                             ry="55.21188" />
                          <path
                             sodipodi:type="star"
                             style="mix-blend-mode:normal;fill:url(#radialGradient2589);fill-opacity:1;stroke:none;stroke-width:10.2801;stroke-linecap:round;stroke-linejoin:round;stroke-miterlimit:0;stroke-opacity:1;filter:url(#filter3317)"
                             id="path2451"
                             inkscape:flatsided="true"
                             sodipodi:sides="20"
                             sodipodi:cx="-414.34381"
                             sodipodi:cy="-127.28209"
                             sodipodi:r1="103.68989"
                             sodipodi:r2="88.136414"
                             sodipodi:arg1="0.78539816"
                             sodipodi:arg2="0.94247779"
                             inkscape:rounded="8.32"
                             inkscape:randomized="0"
                             d="m -341.02399,-53.962267 c -190.85659,190.856597 214.24774,-103.468933 -26.2456,19.068544 -240.49334,122.537478 235.73537,-32.198611 -30.85355,10.024927 -266.58892,42.223538 234.14758,42.223536 -32.44134,0 -266.58892,-42.223536 209.63978,112.51255 -30.85355,-10.024926 -240.49334,-122.537478 164.61099,171.788052 -26.2456,-19.068544 -190.8566,-190.856594 103.46893,214.247736 -19.06855,-26.245599 -122.53748,-240.493335 32.19861,235.735365 -10.02492,-30.853555 -42.22354,-266.58892 -42.22354,234.14758 0,-32.44134 42.22353,-266.58892 -112.51255,209.639787 10.02492,-30.85355 122.53748,-240.49334 -171.78805,164.6109934 19.06855,-26.2456 190.85659,-190.8566 -214.24774,103.468932 26.24559,-19.06855 240.49334,-122.53747 -235.73536,32.19862 30.85356,-10.02492 266.58892,-42.22354 -234.14758,-42.22354 32.44134,0 266.58892,42.22353 -209.63979,-112.51255 30.85355,10.02492 240.49334,122.53748 -164.61099,-171.78805 26.2456,19.06855 190.8566,190.8565917 -103.46893,-214.24774 19.06855,26.2456 122.53747,240.493335 -32.19862,-235.73537 10.02492,30.85355 42.22354,266.58892 42.22354,-234.14758 0,32.44134 -42.22353,266.58892 112.51255,-209.63979 -10.02492,30.853555 -122.53748,240.493335 171.78805,-164.610995 -19.06855,26.245598 z"
                             transform="matrix(0.35572858,0,0,0.34280949,374.96216,207.57117)" />
                        </g>
                      </g>
                    </g>
                  </g>
                </g>
              </g>
            </g>
          </g>
        </g>
      </g>
    </g>
  </g>
</svg>
